<svg width="312" height="44" viewBox="0 0 312 44" fill="none" xmlns="http://www.w3.org/2000/svg">
<path d="M224.243 25.8867C225.123 21.7067 226.003 17.6 226.883 13.42C227.763 9.31333 228.643 5.13333 229.523 1.02667C229.597 0.44 230.183 0 230.697 0C235.39 0 240.083 0 244.777 0C245.29 0 245.657 0.44 245.583 1.02667C244.043 7.99333 242.577 15.0333 241.037 22.0733C239.57 29.04 238.03 36.08 236.563 43.0467C236.417 43.6333 235.903 44 235.39 44C230.55 44 225.637 44 220.797 44C220.503 44 220.283 43.9267 220.137 43.7067C217.423 39.4533 214.637 35.2 211.923 30.9467C209.21 26.6933 206.497 22.44 203.783 18.1867C202.903 22.3667 202.023 26.4733 201.143 30.6533C200.263 34.76 199.383 38.94 198.503 43.0467C198.357 43.6333 197.843 44 197.257 44C192.563 44 187.943 44 183.25 44C182.663 44 182.37 43.6333 182.443 43.0467C183.983 36.08 185.45 29.04 186.917 22.0733C188.457 15.0333 189.923 7.99333 191.39 1.02667C191.537 0.44 192.05 0 192.637 0C197.477 0 202.317 0 207.157 0C207.523 0 207.743 0.146663 207.89 0.366664C210.603 4.62 213.317 8.87333 216.03 13.1267C218.743 17.38 221.53 21.6333 224.243 25.8867Z" fill="#227DD8"/>
<path d="M145.9 29.3333C139.007 28.6733 132.04 28.16 125.074 27.5733C118.987 27.06 115.32 22.1467 116.567 16.2067C116.934 14.5933 117.227 12.98 117.594 11.3667C117.74 10.9267 117.814 10.4867 117.96 9.97333C119.94 4.32667 126.027 0 132.114 0C144.067 0 156.094 0 168.12 0C168.78 0 169.147 0.366666 169 0.953334C168.414 3.66667 167.827 6.30667 167.24 9.02C167.167 9.53333 166.58 9.97333 166.067 9.97333C156.094 9.97333 146.12 9.97333 136.147 9.97333C133.36 9.97333 132.26 14.3 134.974 14.5933C141.867 15.2533 148.834 15.7667 155.727 16.3533C161.887 16.8667 165.554 21.78 164.307 27.72C163.94 29.3333 163.647 30.9467 163.28 32.56C163.207 33 162.987 33.44 162.84 33.9533C160.934 39.6 154.847 44 148.834 44C136.734 44 124.707 44 112.68 44C112.167 44 111.8 43.56 111.874 42.9733C112.46 40.3333 113.047 37.62 113.634 34.9067C113.707 34.3933 114.294 33.9533 114.807 33.9533C124.78 33.9533 134.754 33.9533 144.654 33.9533C147.587 33.9533 148.687 29.6267 145.9 29.3333Z" fill="#4A4A4A"/>
<path d="M54.5137 32.56C55.3204 29.04 56.0537 25.52 56.7871 22C57.5204 18.48 58.3271 14.8867 59.0604 11.3667C59.7204 8.28667 61.7004 5.35333 64.2671 3.3C66.9071 1.24667 70.2071 0 73.5804 0C79.0071 0 84.5071 0 90.0071 0C97.4137 0 104.82 0 112.3 0C112.887 0 113.18 0.366666 113.107 0.953334C112.52 3.66667 111.934 6.38 111.347 9.16667C111.2 9.68 110.687 10.12 110.1 10.12C102.694 10.12 95.2871 10.12 87.8804 10.12C85.0204 10.12 82.2337 10.12 79.3737 10.12C77.1737 10.12 75.0471 11.8067 74.6071 13.9333C74.3137 14.8867 74.1671 15.9133 73.9471 16.8667C78.0537 16.8667 82.2337 16.8667 86.4137 16.8667C92.4271 16.8667 98.5871 16.8667 104.674 16.8667C105.187 16.8667 105.554 17.3067 105.48 17.82C104.894 20.6067 104.307 23.32 103.72 26.1067C103.574 26.62 103.06 27.06 102.474 27.06C96.3871 27.06 90.3004 27.06 84.2137 27.06C80.1071 27.06 75.9271 27.06 71.8204 27.06C71.6004 28.0133 71.3804 29.04 71.1604 29.9933C70.7204 32.12 72.1137 33.8067 74.3137 33.8067C77.1737 33.8067 79.9604 33.8067 82.8204 33.8067C90.2271 33.8067 97.6337 33.8067 105.04 33.8067C105.627 33.8067 105.994 34.2467 105.847 34.76C105.334 37.5467 104.674 40.26 104.087 42.9733C104.014 43.56 103.5 43.9267 102.914 43.9267C95.5071 43.9267 88.0271 43.9267 80.6204 43.9267C75.1204 43.9267 69.6204 43.9267 64.1937 43.9267C60.8937 43.9267 58.1071 42.68 56.3471 40.6267C54.6604 38.5733 53.9271 35.7133 54.5137 32.56Z" fill="#4A4A4A"/>
<path d="M14.5607 30.9467C12.1407 26.0333 9.64741 21.12 7.30074 16.2067C4.88074 11.2933 2.46074 6.38 0.0407409 1.46667C-0.0325925 1.17334 -0.0325929 0.806669 0.26074 0.439999C0.480741 0.146669 0.847407 0 1.21407 0C6.20074 0 11.1141 0 16.1007 0C16.4674 0 16.6874 0.146669 16.8341 0.366666C18.2274 3.3 19.6207 6.16 21.0141 9.09333C22.4807 11.9533 23.8741 14.8867 25.3407 17.7467C27.9807 14.8867 30.6207 11.9533 33.2607 9.09333C35.9007 6.16 38.6141 3.3 41.2541 0.366666C41.5474 0.146669 41.9141 0 42.2074 0C47.1207 0 52.1074 0 57.0941 0C57.4607 0 57.7541 0.146669 57.8274 0.439999C57.9741 0.806669 57.8274 1.17334 57.6074 1.46667C53.1341 6.38 48.5874 11.2933 44.0407 16.2067C39.5674 21.12 35.0207 26.0333 30.5474 30.9467C30.1807 32.9267 29.7407 34.98 29.3007 36.96C28.8607 38.94 28.4207 40.9933 27.9807 42.9733C27.9074 43.4867 27.3941 43.9267 26.8074 43.9267C22.1141 43.9267 17.4207 43.9267 12.8007 43.9267C12.2141 43.9267 11.8474 43.4867 11.9941 42.9733C12.3607 40.9933 12.8007 38.94 13.2407 36.96C13.6807 34.98 14.1207 32.9267 14.5607 30.9467Z" fill="#4A4A4A"/>
<path fill-rule="evenodd" clip-rule="evenodd" d="M284.454 0H267.733C264.433 0 261.133 1.32 258.493 3.37333C255.853 5.42666 253.873 8.28667 253.213 11.44C253.106 11.9565 252.998 12.4747 252.89 12.9939C252.263 16.013 251.628 19.0699 250.94 22.0733L248.74 32.6333C248.08 35.7867 248.813 38.5733 250.573 40.7C252.26 42.7533 255.047 44 258.347 44H264.974L274.419 26.8911H262.801C262.123 26.8911 261.511 26.4872 261.244 25.8643C260.977 25.2413 261.106 24.5192 261.574 24.0284L284.454 0ZM269.932 44H275.36H292.52C295.82 44 299.12 42.7533 301.76 40.7C304.327 38.6467 306.307 35.7867 306.967 32.6333C307.333 30.8734 307.718 29.1134 308.103 27.3535C308.488 25.5934 308.873 23.8334 309.24 22.0733C309.643 20.1008 310.067 18.1504 310.49 16.21L310.49 16.209L310.49 16.2082C310.837 14.6143 311.183 13.0272 311.513 11.44C312.173 8.28667 311.367 5.5 309.68 3.37333C307.92 1.32 305.207 0 301.907 0H291.351L284.203 13.7091H295.959C296.643 13.7091 297.26 14.1207 297.523 14.7525C297.786 15.3843 297.643 16.1122 297.16 16.5976L269.932 44Z" fill="#227DD8"/>
</svg>
